<svg xmlns="http://www.w3.org/2000/svg" viewBox="0 0 16.84 14.42"><g id="Layer_2" data-name="Layer 2"><g id="Layer_2-2" data-name="Layer 2"><path d="M.6.6H16.24a0,0,0,0,1,0,0V6.24a1.58,1.58,0,0,1-1.58,1.58H2.18A1.58,1.58,0,0,1,.6,6.24V.6A0,0,0,0,1,.6.6Z" fill="none" stroke="#222" stroke-linejoin="round" stroke-width="1.2"/><line x1="14.35" y1="2.94" x2="2.39" y2="2.94" fill="none" stroke="#222" stroke-linejoin="round" stroke-width="1.2"/><line x1="14.35" y1="5.12" x2="2.39" y2="5.12" fill="none" stroke="#222" stroke-linejoin="round" stroke-width="1.2"/><path d="M4.67,10a5,5,0,0,1-.13,2.13,5.06,5.06,0,0,1-1,1.9" fill="none" stroke="#222" stroke-linejoin="round" stroke-width="1.2"/><path d="M12.07,10a5.31,5.31,0,0,0,.13,2.13,5,5,0,0,0,1,1.9" fill="none" stroke="#222" stroke-linejoin="round" stroke-width="1.2"/><path d="M8.33,10a5,5,0,0,0,.13,2.13,4.91,4.91,0,0,0,1,1.9" fill="none" stroke="#222" stroke-linejoin="round" stroke-width="1.2"/></g></g></svg>