<svg xmlns="http://www.w3.org/2000/svg" viewBox="0 0 17.04 16.89"><g id="Layer_2" data-name="Layer 2"><g id="Layer_2-2" data-name="Layer 2"><path d="M.6,7.77H16.44a0,0,0,0,1,0,0v2a.7.7,0,0,1-.7.7H1.3a.7.7,0,0,1-.7-.7v-2A0,0,0,0,1,.6,7.77Z" fill="none" stroke="#222" stroke-linejoin="round" stroke-width="1.2"/><polyline points="6.04 4.95 6.04 0.6 11.08 0.6 11.08 4.97" fill="none" stroke="#222" stroke-linejoin="round" stroke-width="1.2"/><path d="M1.44,7.78C2.66,5.94,5.37,4.67,8.51,4.67s5.87,1.27,7.09,3.11" fill="none" stroke="#222" stroke-linejoin="round" stroke-width="1.2"/><path d="M4.86,12.47a5,5,0,0,1-.13,2.13,4.91,4.91,0,0,1-1,1.9" fill="none" stroke="#222" stroke-linejoin="round" stroke-width="1.2"/><path d="M12.26,12.47a5.13,5.13,0,0,0,.13,2.13,5,5,0,0,0,1,1.9" fill="none" stroke="#222" stroke-linejoin="round" stroke-width="1.2"/><path d="M8.52,12.47a5,5,0,0,0,.13,2.13,4.91,4.91,0,0,0,1,1.9" fill="none" stroke="#222" stroke-linejoin="round" stroke-width="1.2"/></g></g></svg>