<svg xmlns="http://www.w3.org/2000/svg" viewBox="0 0 12 16.83"><g id="Layer_2" data-name="Layer 2"><g id="Layer_2-2" data-name="Layer 2"><rect x="7.65" y="9.51" width="2.86" height="6.72" fill="none" stroke="#222" stroke-linejoin="round" stroke-width="1.2"/><path d="M9,2.13A2.37,2.37,0,0,1,11.4,4.51a2.35,2.35,0,0,1-1.05,2A2.93,2.93,0,0,0,9,8.87v.64" fill="none" stroke="#222" stroke-linejoin="round" stroke-width="1.2"/><path d="M1,.6H9a0,0,0,0,1,0,0V3.45a0,0,0,0,1,0,0H1A.44.44,0,0,1,.6,3V1A.44.44,0,0,1,1,.6Z" fill="none" stroke="#222" stroke-linejoin="round" stroke-width="1.2"/></g></g></svg>