<svg xmlns="http://www.w3.org/2000/svg" viewBox="0 0 16.88 16.88"><g id="Layer_2" data-name="Layer 2"><g id="Layer_2-2" data-name="Layer 2"><path d="M4.06,7.92h11a1.21,1.21,0,0,1,1.21,1.21v1.39a0,0,0,0,1,0,0H4.06a0,0,0,0,1,0,0V7.92A0,0,0,0,1,4.06,7.92Z" fill="none" stroke="#222" stroke-linejoin="round" stroke-width="1.2"/><polyline points="12.6 16.28 12.6 14.53 16.28 10.52" fill="none" stroke="#222" stroke-linejoin="round" stroke-width="1.2"/><line x1="5.56" y1="16.28" x2="14.16" y2="16.28" fill="none" stroke="#222" stroke-linejoin="round" stroke-width="1.2"/><polyline points="4.06 10.52 7.11 14.53 7.11 16.28" fill="none" stroke="#222" stroke-linejoin="round" stroke-width="1.2"/><path d="M2.53.6H4.06a0,0,0,0,1,0,0V7.92a0,0,0,0,1,0,0H.6a0,0,0,0,1,0,0V2.53A1.93,1.93,0,0,1,2.53.6Z" fill="none" stroke="#222" stroke-linejoin="round" stroke-width="1.2"/></g></g></svg>